<svg width="16" height="16" viewBox="0 0 16 16" fill="none" xmlns="http://www.w3.org/2000/svg">
<path d="M6.1665 1.66663H13.1665C13.4759 1.66663 13.7727 1.78954 13.9915 2.00833C14.2103 2.22713 14.3332 2.52387 14.3332 2.83329V9.83329C14.3332 10.1427 14.2103 10.4395 13.9915 10.6582C13.7727 10.877 13.4759 11 13.1665 11H6.1665C5.85708 11 5.56034 10.877 5.34155 10.6582C5.12275 10.4395 4.99984 10.1427 4.99984 9.83329V2.83329C4.99984 2.52387 5.12275 2.22713 5.34155 2.00833C5.56034 1.78954 5.85708 1.66663 6.1665 1.66663ZM6.1665 2.66663C6.1223 2.66663 6.07991 2.68419 6.04865 2.71544C6.0174 2.7467 5.99984 2.78909 5.99984 2.83329V9.83329C5.99984 9.85518 6.00415 9.87685 6.01252 9.89707C6.0209 9.91729 6.03318 9.93567 6.04865 9.95114C6.06413 9.96662 6.0825 9.9789 6.10272 9.98727C6.12294 9.99565 6.14462 9.99996 6.1665 9.99996H13.1665C13.2107 9.99996 13.2531 9.9824 13.2844 9.95114C13.3156 9.91989 13.3332 9.87749 13.3332 9.83329V2.83329C13.3332 2.78909 13.3156 2.7467 13.2844 2.71544C13.2531 2.68419 13.2107 2.66663 13.1665 2.66663H6.1665ZM9.99984 12C9.99984 11.8674 10.0525 11.7402 10.1463 11.6464C10.2401 11.5526 10.3672 11.5 10.4998 11.5C10.6324 11.5 10.7596 11.5526 10.8534 11.6464C10.9472 11.7402 10.9998 11.8674 10.9998 12V13.1666C10.9998 13.476 10.8769 13.7728 10.6581 13.9916C10.4393 14.2104 10.1426 14.3333 9.83317 14.3333H2.83317C2.52375 14.3333 2.22701 14.2104 2.00821 13.9916C1.78942 13.7728 1.6665 13.476 1.6665 13.1666V6.16663C1.6665 5.85721 1.78942 5.56046 2.00821 5.34167C2.22701 5.12288 2.52375 4.99996 2.83317 4.99996H3.99984C4.13245 4.99996 4.25962 5.05264 4.35339 5.14641C4.44716 5.24017 4.49984 5.36735 4.49984 5.49996C4.49984 5.63257 4.44716 5.75974 4.35339 5.85351C4.25962 5.94728 4.13245 5.99996 3.99984 5.99996H2.83317C2.78897 5.99996 2.74658 6.01752 2.71532 6.04878C2.68406 6.08003 2.6665 6.12242 2.6665 6.16663V13.1666C2.6665 13.2108 2.68406 13.2532 2.71532 13.2845C2.74658 13.3157 2.78897 13.3333 2.83317 13.3333H9.83317C9.87737 13.3333 9.91977 13.3157 9.95102 13.2845C9.98228 13.2532 9.99984 13.2108 9.99984 13.1666V12Z" fill="#FE7704" stroke="#FE7704" stroke-width="0.4"/>
</svg>
