<svg width="20" height="20" viewBox="0 0 20 20" fill="none" xmlns="http://www.w3.org/2000/svg">
<path d="M14.268 17.4921H5.64917C3.90884 17.4921 2.5 16.0762 2.5 14.3271V5.665C2.5 3.91592 3.90884 2.5 5.64917 2.5H10.0414C10.3729 2.5 10.7044 2.74987 10.7044 3.16631C10.7044 3.58276 10.4558 3.83263 10.0414 3.83263H5.64917C4.57182 3.83263 3.74309 4.66552 3.74309 5.74829V14.4104C3.74309 15.4931 4.57182 16.326 5.64917 16.326H14.268C15.3453 16.326 16.174 15.4931 16.174 14.4104V10.3292C16.174 9.99604 16.4227 9.66289 16.837 9.66289C17.1685 9.66289 17.5 9.91275 17.5 10.3292V14.4104C17.4171 16.0762 16.0083 17.4921 14.268 17.4921Z" fill="#343434"/>
<path d="M9.54431 11.4949C9.37856 11.4949 9.21282 11.4116 9.12995 11.3283C8.88133 11.0784 8.88133 10.662 9.12995 10.4121L16.3399 3.16592C16.5885 2.91605 17.0029 2.91605 17.2515 3.16592C17.5001 3.41578 17.5001 3.83223 17.2515 4.0821L9.95867 11.3283C9.8758 11.4116 9.71006 11.4949 9.54431 11.4949Z" fill="#343434"/>
</svg>
