<svg width="14" height="14" viewBox="0 0 14 14" fill="none" xmlns="http://www.w3.org/2000/svg">
<path d="M13.4904 2.8847C13.5105 2.86588 13.5282 2.84576 13.5441 2.8252C13.8385 2.51459 14 2.11868 14 1.70308C14 0.764265 13.1754 0 12.1613 0H1.83867C0.825066 0 0 0.763827 0 1.70308C0 2.10862 0.153533 2.49447 0.434467 2.80158C0.455 2.8322 0.479267 2.86151 0.507733 2.88819L4.5864 6.66577V10.6293C4.5864 10.7741 4.65593 10.9036 4.76607 10.9915C4.7726 10.9972 4.7782 11.0029 4.78473 11.0081L8.44993 13.8889C8.54467 13.9633 8.6604 14 8.77613 14C8.91893 14 9.06127 13.944 9.16113 13.8351C9.25727 13.7305 9.29413 13.598 9.27593 13.4715V6.78783L13.4904 2.8847ZM1.30293 2.2718C1.28893 2.25386 1.274 2.23592 1.25673 2.2193C1.11253 2.07975 1.0332 1.89688 1.0332 1.70352C1.0332 1.29229 1.3944 0.95719 1.83867 0.95719H12.1613C12.6056 0.95719 12.9673 1.29186 12.9673 1.70352C12.9673 1.89557 12.8889 2.07799 12.7461 2.21711C12.7358 2.22717 12.7265 2.23724 12.7176 2.24773L8.3944 6.25148C8.29733 6.34117 8.2432 6.46278 8.2432 6.58965V12.5003L5.6196 10.4381V6.4676C5.6196 6.34073 5.565 6.21911 5.4684 6.12943L1.30293 2.2718Z" fill="#999999"/>
</svg>
