<svg width="32" height="32" viewBox="0 0 32 32" fill="none" xmlns="http://www.w3.org/2000/svg">
<g clip-path="url(#clip0_742_1008)">
<rect y="-0.5" width="32" height="32" rx="6" fill="#E7F4FF"/>
<path d="M7.41789 22.6054C7.02737 22.9959 7.02737 23.6291 7.41789 24.0196C7.80842 24.4101 8.44158 24.4101 8.83211 24.0196L7.41789 22.6054ZM12.625 18.8125L13.3321 18.1054C12.9416 17.7149 12.3084 17.7149 11.9179 18.1054L12.625 18.8125ZM14.875 21.0625L14.1679 21.7696C14.5584 22.1601 15.1916 22.1601 15.5821 21.7696L14.875 21.0625ZM19.9375 16L20.6446 15.2929C20.2541 14.9024 19.6209 14.9024 19.2304 15.2929L19.9375 16ZM23.7304 21.2071C24.1209 21.5976 24.7541 21.5976 25.1446 21.2071C25.5351 20.8166 25.5351 20.1834 25.1446 19.7929L23.7304 21.2071ZM8.83211 24.0196L13.3321 19.5196L11.9179 18.1054L7.41789 22.6054L8.83211 24.0196ZM11.9179 19.5196L14.1679 21.7696L15.5821 20.3554L13.3321 18.1054L11.9179 19.5196ZM15.5821 21.7696L20.6446 16.7071L19.2304 15.2929L14.1679 20.3554L15.5821 21.7696ZM19.2304 16.7071L23.7304 21.2071L25.1446 19.7929L20.6446 15.2929L19.2304 16.7071ZM10.375 8H21.625V6H10.375V8ZM24 10.375V21.625H26V10.375H24ZM21.625 24H10.375V26H21.625V24ZM8 21.625V10.375H6V21.625H8ZM10.375 24C9.06332 24 8 22.9367 8 21.625H6C6 24.0412 7.95875 26 10.375 26V24ZM24 21.625C24 22.9367 22.9367 24 21.625 24V26C24.0412 26 26 24.0412 26 21.625H24ZM21.625 8C22.9367 8 24 9.06332 24 10.375H26C26 7.95875 24.0412 6 21.625 6V8ZM10.375 6C7.95875 6 6 7.95875 6 10.375H8C8 9.06332 9.06332 8 10.375 8V6ZM12.75 12.0625C12.75 12.4422 12.4422 12.75 12.0625 12.75V14.75C13.5468 14.75 14.75 13.5468 14.75 12.0625H12.75ZM12.0625 12.75C11.6828 12.75 11.375 12.4422 11.375 12.0625H9.375C9.375 13.5468 10.5782 14.75 12.0625 14.75V12.75ZM11.375 12.0625C11.375 11.6828 11.6828 11.375 12.0625 11.375V9.375C10.5782 9.375 9.375 10.5782 9.375 12.0625H11.375ZM12.0625 11.375C12.4422 11.375 12.75 11.6828 12.75 12.0625H14.75C14.75 10.5782 13.5468 9.375 12.0625 9.375V11.375Z" fill="black"/>
</g>
<defs>
<clipPath id="clip0_742_1008">
<rect width="32" height="32" fill="white"/>
</clipPath>
</defs>
</svg>
