<svg width="16" height="18" viewBox="0 0 16 18" fill="none" xmlns="http://www.w3.org/2000/svg">
<path d="M14.8146 5.63473L8.81497 9.26274V16.4142C8.81497 16.4142 12.5784 14.043 12.7711 13.9284C12.9565 13.8176 13.2074 13.941 13.2498 14.2306C13.2523 14.2432 13.2741 14.3163 13.2741 14.3289C13.2995 14.6424 13.262 14.7898 13.0656 14.9094L8.52529 17.7113C8.41015 17.7718 8.25865 17.8058 8.01624 17.6811C7.89746 17.6257 0.98518 13.2862 0.98518 13.2862C0.926379 13.2485 0.877745 13.1959 0.843829 13.1333C0.809913 13.0708 0.791824 13.0003 0.791253 12.9285V5.09702C0.791253 5.0542 0.751256 4.65752 1.01306 4.4787L8.07805 0.810397C8.13404 0.780962 8.1959 0.765625 8.25865 0.765625C8.32139 0.765625 8.38325 0.780962 8.43924 0.810397L15.503 4.47996C15.6606 4.56308 15.7927 4.73182 15.7806 4.89049C15.7861 4.92122 15.789 4.95241 15.7891 4.98368V12.5079C15.7891 12.7862 15.5709 13.0116 15.303 13.0116H15.3018C15.1728 13.0116 15.0491 12.9585 14.9577 12.8638C14.8664 12.7692 14.8149 12.6407 14.8146 12.5067V5.63473ZM7.71929 16.3286V9.26526L1.84815 5.76192V12.6087L7.71929 16.3299V16.3286ZM2.66992 4.83257L8.25743 8.12309L13.8425 4.83257L8.25622 1.93368L2.66992 4.83257Z" fill="#FE772D"/>
</svg>
