<svg width="16" height="16" viewBox="0 0 16 16" fill="none" xmlns="http://www.w3.org/2000/svg">
<path d="M13.0517 8.31581C13.0517 8.19018 13.1016 8.0697 13.1904 7.98086C13.2793 7.89203 13.3997 7.84212 13.5254 7.84212C13.651 7.84212 13.7715 7.89203 13.8603 7.98086C13.9491 8.0697 13.999 8.19018 13.999 8.31581V12.2632C13.999 13.2224 13.2214 14 12.2623 14H3.7367C2.77757 14 2 13.2224 2 12.2632V4.21056C2 3.25135 2.77757 2.47372 3.7367 2.47372H7.84162C7.96724 2.47372 8.08772 2.52362 8.17654 2.61246C8.26537 2.70129 8.31527 2.82177 8.31527 2.9474C8.31527 3.07303 8.26537 3.19351 8.17654 3.28235C8.08772 3.37118 7.96724 3.42108 7.84162 3.42108H3.7367C3.52733 3.42108 3.32655 3.50426 3.1785 3.65232C3.03046 3.80037 2.94729 4.00118 2.94729 4.21056V12.2632C2.94729 12.4725 3.03046 12.6733 3.1785 12.8214C3.32655 12.9695 3.52733 13.0526 3.7367 13.0526H12.2623C12.4717 13.0526 12.6725 12.9695 12.8205 12.8214C12.9685 12.6733 13.0517 12.4725 13.0517 12.2632V8.31581ZM12.4292 4.21056L11.1001 2.79835C11.0141 2.70685 10.9678 2.5849 10.9717 2.45932C10.9755 2.33374 11.029 2.21482 11.1205 2.12872C11.212 2.04262 11.3339 1.9964 11.4595 2.00022C11.5851 2.00404 11.704 2.05759 11.7901 2.14909L13.8703 4.35961C14.1548 4.66182 13.9404 5.15792 13.5254 5.15792H11.1478C9.93892 5.15792 8.94679 6.21202 8.94679 7.52634V10.3684C8.94679 10.4941 8.89689 10.6145 8.80807 10.7034C8.71924 10.7922 8.59877 10.8421 8.47315 10.8421C8.34753 10.8421 8.22706 10.7922 8.13823 10.7034C8.04941 10.6145 7.9995 10.4941 7.9995 10.3684V7.52634C7.9995 5.70124 9.40244 4.21056 11.1478 4.21056H12.4292Z" fill="#FE7704" stroke="#FE7704" stroke-width="0.4"/>
</svg>
