<svg width="32" height="32" viewBox="0 0 32 32" fill="none" xmlns="http://www.w3.org/2000/svg">
<g clip-path="url(#clip0_742_1306)">
<rect y="-0.5" width="32" height="32" rx="6" fill="#E7F4FF"/>
<path d="M15.4 25.5998H9.39999C8.0745 25.5998 6.99999 24.5253 7 23.1998L7.00009 8.79989C7.0001 7.47441 8.07462 6.3999 9.40009 6.3999H20.2004C21.5258 6.3999 22.6004 7.47442 22.6004 8.7999V13.5999M23.8 23.7999L25 24.9999M11.2004 11.1999H18.4004M11.2004 14.7999H18.4004M11.2004 18.3999H14.8004M24.4 21.3999C24.4 23.0568 23.0569 24.3999 21.4 24.3999C19.7431 24.3999 18.4 23.0568 18.4 21.3999C18.4 19.743 19.7431 18.3999 21.4 18.3999C23.0569 18.3999 24.4 19.743 24.4 21.3999Z" stroke="black" stroke-width="2" stroke-linecap="round" stroke-linejoin="round"/>
</g>
<defs>
<clipPath id="clip0_742_1306">
<rect width="32" height="32" fill="white"/>
</clipPath>
</defs>
</svg>
