<svg width="32" height="32" viewBox="0 0 32 32" fill="none" xmlns="http://www.w3.org/2000/svg">
<path d="M15.4938 21.4209C13.6631 21.4209 11.9443 20.7136 10.6514 19.4257C9.35838 18.1378 8.64351 16.4298 8.64351 14.6138C8.64351 12.7946 9.35527 11.0867 10.6514 9.80182C11.9474 8.51699 13.6662 7.80662 15.4938 7.80662C17.3245 7.80662 19.0432 8.5139 20.3362 9.80182C21.6292 11.0867 22.3441 12.7977 22.3441 14.6138C22.3441 16.4329 21.6323 18.1409 20.3362 19.4257C19.0432 20.7136 17.3214 21.4209 15.4938 21.4209ZM15.4938 10.0304C12.9514 10.0304 10.8814 12.0873 10.8814 14.6138C10.8814 17.1402 12.9514 19.1972 15.4938 19.1972C18.0362 19.1972 20.1062 17.1402 20.1062 14.6138C20.1062 12.0873 18.0362 10.0304 15.4938 10.0304ZM7.17027 15.7442H5.11892C4.50041 15.7442 4 15.2469 4 14.6323C4 14.0177 4.50041 13.5204 5.11892 13.5204H7.17027C7.78878 13.5204 8.28919 14.0177 8.28919 14.6323C8.28919 15.2469 7.78878 15.7442 7.17027 15.7442ZM15.4689 7.46688C14.8504 7.46688 14.35 6.96963 14.35 6.35501V4.53277C14.35 3.91815 14.8504 3.4209 15.4689 3.4209C16.0874 3.4209 16.5878 3.91815 16.5878 4.53277V6.35501C16.5878 6.96963 16.0874 7.46688 15.4689 7.46688ZM9.1377 10.2435C8.85176 10.2435 8.56581 10.1354 8.34513 9.91918L6.88432 8.46757C6.44608 8.03209 6.44608 7.3279 6.88432 6.8955C7.32257 6.46002 8.03122 6.46002 8.46635 6.8955L9.92716 8.34712C10.3654 8.7826 10.3654 9.48679 9.92716 9.91918C9.70959 10.1354 9.42365 10.2435 9.1377 10.2435ZM25.8811 15.7133H23.8297C23.2112 15.7133 22.7108 15.216 22.7108 14.6014C22.7108 13.9868 23.2112 13.4895 23.8297 13.4895H25.8811C26.4996 13.4895 27 13.9868 27 14.6014C27 15.216 26.4996 15.7133 25.8811 15.7133ZM22.1141 10.2188C21.8281 10.2188 21.5422 10.1107 21.3215 9.89447C20.8832 9.45899 20.8832 8.7548 21.3215 8.32241L22.7823 6.8708C23.2205 6.43531 23.9292 6.43531 24.3643 6.8708C24.8026 7.30628 24.8026 8.01047 24.3643 8.44286L22.9035 9.89447C22.6891 10.1107 22.4 10.2188 22.1141 10.2188Z" fill="black"/>
<path d="M18.8 24.4209H12.2C11.5367 24.4209 11 23.9737 11 23.4209C11 22.8681 11.5367 22.4209 12.2 22.4209H18.8C19.4633 22.4209 20 22.8681 20 23.4209C20 23.9737 19.4633 24.4209 18.8 24.4209Z" fill="black"/>
<path d="M16.9944 27.4209H14.0056C13.4497 27.4209 13 26.7501 13 25.9209C13 25.0917 13.4497 24.4209 14.0056 24.4209H16.9944C17.5503 24.4209 18 25.0917 18 25.9209C18 26.7501 17.5503 27.4209 16.9944 27.4209Z" fill="black"/>
</svg>
