<svg width="16" height="16" viewBox="0 0 16 16" fill="none" xmlns="http://www.w3.org/2000/svg">
<path d="M11.4144 13.9937H4.51934C3.12707 13.9937 2 12.8609 2 11.4617V4.532C2 3.13274 3.12707 2 4.51934 2H8.03315C8.29834 2 8.56354 2.19989 8.56354 2.53305C8.56354 2.86621 8.36464 3.0661 8.03315 3.0661H4.51934C3.65746 3.0661 2.99448 3.73242 2.99448 4.59863V11.5283C2.99448 12.3945 3.65746 13.0608 4.51934 13.0608H11.4144C12.2762 13.0608 12.9392 12.3945 12.9392 11.5283V8.26336C12.9392 7.99684 13.1381 7.73031 13.4696 7.73031C13.7348 7.73031 14 7.9302 14 8.26336V11.5283C13.9337 12.8609 12.8066 13.9937 11.4144 13.9937Z" fill="white"/>
<path d="M7.63539 9.19576C7.50279 9.19576 7.37019 9.12913 7.3039 9.0625C7.105 8.8626 7.105 8.52945 7.3039 8.32955L13.0719 2.53261C13.2707 2.33272 13.6022 2.33272 13.8011 2.53261C14 2.73251 14 3.06566 13.8011 3.26556L7.96688 9.0625C7.90058 9.12913 7.76798 9.19576 7.63539 9.19576Z" fill="white"/>
</svg>
