<svg width="22" height="22" viewBox="0 0 22 22" fill="none" xmlns="http://www.w3.org/2000/svg">
<path d="M3.5 2.85C3.5 2.38056 3.97968 2 4.57143 2H17.4286C18.0203 2 18.5 2.38056 18.5 2.85V19L14.75 16.875L11 19L7.25 16.875L3.5 19V2.85Z" stroke="#474946" stroke-width="1.4" stroke-linecap="round" stroke-linejoin="round"/>
<path d="M6.5 10H15.5" stroke="#474946" stroke-width="1.4" stroke-linecap="round" stroke-linejoin="round"/>
<path d="M6.5 14H15.5" stroke="#474946" stroke-width="1.4" stroke-linecap="round" stroke-linejoin="round"/>
<path d="M10.7102 3.58541C10.77 3.40115 11.0307 3.40115 11.0906 3.58541L11.529 4.93475C11.5558 5.01716 11.6326 5.07295 11.7192 5.07295H13.138C13.3318 5.07295 13.4123 5.32087 13.2556 5.43475L12.1078 6.26869C12.0377 6.31962 12.0083 6.40989 12.0351 6.4923L12.4735 7.84164C12.5334 8.0259 12.3225 8.17913 12.1658 8.06525L11.0179 7.23131C10.9479 7.18038 10.8529 7.18038 10.7828 7.23131L9.63501 8.06525C9.47827 8.17913 9.26738 8.0259 9.32725 7.84164L9.76567 6.4923C9.79245 6.40989 9.76312 6.31962 9.69302 6.26869L8.5452 5.43475C8.38846 5.32087 8.46901 5.07295 8.66276 5.07295H10.0815C10.1682 5.07295 10.245 5.01716 10.2718 4.93475L10.7102 3.58541Z" fill="#474946"/>
</svg>
