<svg width="22" height="22" viewBox="0 0 22 22" fill="none" xmlns="http://www.w3.org/2000/svg">
<path d="M11.3683 0.886854L19.5633 5.61135C19.6768 5.68099 19.7704 5.77867 19.8352 5.89499C19.9 6.0113 19.9337 6.14234 19.9332 6.27548V15.7245C19.9339 15.8578 19.9003 15.9892 19.8355 16.1057C19.7707 16.2223 19.677 16.3202 19.5633 16.39L11.3683 21.1145C11.2589 21.1864 11.1308 21.2247 10.9998 21.2247C10.8688 21.2247 10.7407 21.1864 10.6313 21.1145L2.43629 16.39C2.32262 16.3202 2.22886 16.2223 2.16406 16.1057C2.09927 15.9892 2.06564 15.8578 2.06642 15.7245V6.27548C2.06642 5.97985 2.21492 5.75848 2.43629 5.61135L10.6313 0.886854C10.7407 0.814934 10.8688 0.776611 10.9998 0.776611C11.1308 0.776611 11.2589 0.814934 11.3683 0.886854ZM3.54454 7.38235V15.2817L10.3357 19.195V11.3699L3.54317 7.38235H3.54454ZM18.4564 7.4566L11.7382 11.4441V19.195L18.4564 15.356V7.4566ZM10.9998 2.36223L4.35579 6.20123L11.074 10.1145L17.718 6.20123L10.9998 2.36223Z" fill="#474946"/>
</svg>
