<svg width="14" height="14" viewBox="0 0 14 14" fill="none" xmlns="http://www.w3.org/2000/svg">
<path d="M12.6641 11.8358L10.4999 9.68911C11.34 8.64168 11.7468 7.3122 11.6368 5.97404C11.5267 4.63587 10.9081 3.39073 9.90816 2.49465C8.90824 1.59857 7.603 1.11966 6.26082 1.15639C4.91863 1.19311 3.64153 1.74269 2.69211 2.69211C1.74269 3.64153 1.19311 4.91863 1.15639 6.26082C1.11966 7.603 1.59857 8.90824 2.49465 9.90816C3.39073 10.9081 4.63587 11.5267 5.97404 11.6368C7.3122 11.7468 8.64168 11.34 9.68911 10.4999L11.8358 12.6466C11.89 12.7013 11.9545 12.7447 12.0256 12.7743C12.0967 12.8039 12.1729 12.8192 12.2499 12.8192C12.327 12.8192 12.4032 12.8039 12.4743 12.7743C12.5454 12.7447 12.6099 12.7013 12.6641 12.6466C12.7693 12.5378 12.828 12.3925 12.828 12.2412C12.828 12.0899 12.7693 11.9446 12.6641 11.8358ZM6.41661 10.4999C5.609 10.4999 4.81953 10.2605 4.14803 9.81178C3.47653 9.3631 2.95316 8.72537 2.6441 7.97924C2.33504 7.2331 2.25418 6.41208 2.41174 5.61999C2.56929 4.8279 2.95819 4.10032 3.52926 3.52926C4.10032 2.95819 4.8279 2.56929 5.61999 2.41174C6.41208 2.25418 7.2331 2.33504 7.97924 2.6441C8.72537 2.95316 9.3631 3.47653 9.81178 4.14803C10.2605 4.81953 10.4999 5.609 10.4999 6.41661C10.4999 7.49958 10.0697 8.53819 9.30396 9.30396C8.53819 10.0697 7.49958 10.4999 6.41661 10.4999Z" fill="#A8ABB2"/>
</svg>
