<svg width="64" height="64" viewBox="0 0 64 64" fill="none" xmlns="http://www.w3.org/2000/svg">
<path fill-rule="evenodd" clip-rule="evenodd" d="M34 54.0001V42.0001H42L32 30.0001L22 42.0001H30V54.0001H19C14.7493 53.8748 11.218 52.4061 8.406 49.5941C5.594 46.7821 4.12533 43.2508 4 39.0001C4.084 35.0828 5.36533 31.7601 7.844 29.0321C10.3227 26.3041 13.4787 24.6895 17.312 24.1881C18.0627 20.5628 19.7813 17.6461 22.468 15.4381C25.1547 13.2301 28.332 12.0841 32 12.0001C35.6667 12.0841 38.844 13.2301 41.532 15.4381C44.22 17.6461 45.9387 20.5628 46.688 24.1881C50.5213 24.6881 53.6773 26.3028 56.156 29.0321C58.6347 31.7615 59.916 35.0841 60 39.0001C59.8747 43.2508 58.406 46.7821 55.594 49.5941C52.782 52.4061 49.2507 53.8748 45 54.0001H34Z" fill="#A8ABB2"/>
</svg>
