<svg width="19" height="19" viewBox="0 0 19 19" fill="none" xmlns="http://www.w3.org/2000/svg">
<g clip-path="url(#clip0_459_21629)">
<path d="M17.1499 6.65H13.3499C12.846 6.65 12.3627 6.44982 12.0064 6.0935C11.6501 5.73718 11.4499 5.25391 11.4499 4.75V0.95H4.7999C4.54795 0.95 4.30631 1.05009 4.12815 1.22825C3.94999 1.40641 3.8499 1.64804 3.8499 1.9V17.1C3.8499 17.352 3.94999 17.5936 4.12815 17.7718C4.30631 17.9499 4.54795 18.05 4.7999 18.05H16.1999C16.4519 18.05 16.6935 17.9499 16.8717 17.7718C17.0498 17.5936 17.1499 17.352 17.1499 17.1V6.65ZM16.7566 5.7L12.3999 1.3433V4.75C12.3999 5.00196 12.5 5.24359 12.6781 5.42175C12.8563 5.59991 13.0979 5.7 13.3499 5.7H16.7566ZM11.6133 0C12.1172 0.000107611 12.6004 0.200356 12.9566 0.5567L17.5432 5.1433C17.8995 5.49954 18.0998 5.98273 18.0999 6.4866V17.1C18.0999 17.6039 17.8997 18.0872 17.5434 18.4435C17.1871 18.7998 16.7038 19 16.1999 19H4.7999C4.29599 19 3.81272 18.7998 3.4564 18.4435C3.10008 18.0872 2.8999 17.6039 2.8999 17.1V1.9C2.8999 1.39609 3.10008 0.912816 3.4564 0.556497C3.81272 0.200178 4.29599 0 4.7999 0L11.6133 0Z" fill="#D7D7D7"/>
<rect y="8" width="14" height="8" rx="2" fill="#0861FE"/>
<path d="M2.95082 14H1.66175V10.3636H2.96147C3.32724 10.3636 3.6421 10.4364 3.90607 10.582C4.17004 10.7264 4.37305 10.9342 4.51509 11.2053C4.65832 11.4763 4.72994 11.8007 4.72994 12.1783C4.72994 12.5571 4.65832 12.8826 4.51509 13.1548C4.37305 13.4271 4.16886 13.636 3.90252 13.7816C3.63737 13.9272 3.32013 14 2.95082 14ZM2.43058 13.3413H2.91886C3.14613 13.3413 3.3373 13.301 3.49237 13.2205C3.64862 13.1388 3.7658 13.0128 3.84393 12.8423C3.92324 12.6707 3.96289 12.4493 3.96289 12.1783C3.96289 11.9096 3.92324 11.69 3.84393 11.5195C3.7658 11.3491 3.64921 11.2236 3.49414 11.1431C3.33907 11.0626 3.1479 11.0224 2.92063 11.0224H2.43058V13.3413ZM8.64107 12.1818C8.64107 12.5784 8.5659 12.9157 8.41557 13.1939C8.26642 13.4721 8.06283 13.6845 7.80478 13.8313C7.54791 13.9769 7.25909 14.0497 6.9383 14.0497C6.61515 14.0497 6.32514 13.9763 6.06827 13.8295C5.81141 13.6828 5.6084 13.4703 5.45925 13.1921C5.3101 12.9139 5.23553 12.5772 5.23553 12.1818C5.23553 11.7853 5.3101 11.4479 5.45925 11.1697C5.6084 10.8916 5.81141 10.6797 6.06827 10.5341C6.32514 10.3873 6.61515 10.3139 6.9383 10.3139C7.25909 10.3139 7.54791 10.3873 7.80478 10.5341C8.06283 10.6797 8.26642 10.8916 8.41557 11.1697C8.5659 11.4479 8.64107 11.7853 8.64107 12.1818ZM7.86159 12.1818C7.86159 11.925 7.82312 11.7083 7.74618 11.532C7.67042 11.3556 7.5633 11.2218 7.4248 11.1307C7.28631 11.0395 7.12414 10.994 6.9383 10.994C6.75246 10.994 6.59029 11.0395 6.45179 11.1307C6.3133 11.2218 6.20558 11.3556 6.12864 11.532C6.05288 11.7083 6.015 11.925 6.015 12.1818C6.015 12.4387 6.05288 12.6553 6.12864 12.8317C6.20558 13.008 6.3133 13.1418 6.45179 13.233C6.59029 13.3241 6.75246 13.3697 6.9383 13.3697C7.12414 13.3697 7.28631 13.3241 7.4248 13.233C7.5633 13.1418 7.67042 13.008 7.74618 12.8317C7.82312 12.6553 7.86159 12.4387 7.86159 12.1818ZM12.419 11.6367H11.6413C11.6271 11.5361 11.5981 11.4467 11.5543 11.3686C11.5105 11.2893 11.4543 11.2218 11.3857 11.1662C11.317 11.1106 11.2377 11.0679 11.1477 11.0384C11.0589 11.0088 10.9625 10.994 10.8583 10.994C10.6701 10.994 10.5062 11.0407 10.3665 11.1342C10.2268 11.2266 10.1185 11.3615 10.0415 11.5391C9.96461 11.7154 9.92614 11.9297 9.92614 12.1818C9.92614 12.4411 9.96461 12.6589 10.0415 12.8352C10.1197 13.0116 10.2286 13.1448 10.3683 13.2347C10.5079 13.3247 10.6695 13.3697 10.853 13.3697C10.956 13.3697 11.0513 13.3561 11.1388 13.3288C11.2276 13.3016 11.3063 13.262 11.375 13.2099C11.4437 13.1566 11.5005 13.0921 11.5455 13.0163C11.5916 12.9406 11.6236 12.8542 11.6413 12.7571L12.419 12.7607C12.3989 12.9276 12.3486 13.0885 12.2681 13.2436C12.1888 13.3975 12.0817 13.5354 11.9467 13.6573C11.813 13.7781 11.6532 13.8739 11.4673 13.945C11.2827 14.0148 11.0737 14.0497 10.8406 14.0497C10.5162 14.0497 10.2262 13.9763 9.97053 13.8295C9.71603 13.6828 9.5148 13.4703 9.36683 13.1921C9.22005 12.9139 9.14666 12.5772 9.14666 12.1818C9.14666 11.7853 9.22124 11.4479 9.37038 11.1697C9.51953 10.8916 9.72195 10.6797 9.97763 10.5341C10.2333 10.3873 10.521 10.3139 10.8406 10.3139C11.0513 10.3139 11.2466 10.3435 11.4265 10.4027C11.6076 10.4619 11.768 10.5483 11.9077 10.6619C12.0473 10.7744 12.161 10.9123 12.2486 11.0756C12.3374 11.239 12.3942 11.426 12.419 11.6367Z" fill="white"/>
</g>
<defs>
<clipPath id="clip0_459_21629">
<rect width="19" height="19" fill="white"/>
</clipPath>
</defs>
</svg>
