<svg width="19" height="19" viewBox="0 0 19 19" fill="none" xmlns="http://www.w3.org/2000/svg">
<g clip-path="url(#clip0_459_21640)">
<path d="M17.1499 6.65H13.3499C12.846 6.65 12.3627 6.44982 12.0064 6.0935C11.6501 5.73718 11.4499 5.25391 11.4499 4.75V0.95H4.7999C4.54795 0.95 4.30631 1.05009 4.12815 1.22825C3.94999 1.40641 3.8499 1.64804 3.8499 1.9V17.1C3.8499 17.352 3.94999 17.5936 4.12815 17.7718C4.30631 17.9499 4.54795 18.05 4.7999 18.05H16.1999C16.4519 18.05 16.6935 17.9499 16.8717 17.7718C17.0498 17.5936 17.1499 17.352 17.1499 17.1V6.65ZM16.7566 5.7L12.3999 1.3433V4.75C12.3999 5.00196 12.5 5.24359 12.6781 5.42175C12.8563 5.59991 13.0979 5.7 13.3499 5.7H16.7566ZM11.6133 0C12.1172 0.000107611 12.6004 0.200356 12.9566 0.5567L17.5432 5.1433C17.8995 5.49954 18.0998 5.98273 18.0999 6.4866V17.1C18.0999 17.6039 17.8997 18.0872 17.5434 18.4435C17.1871 18.7998 16.7038 19 16.1999 19H4.7999C4.29599 19 3.81272 18.7998 3.4564 18.4435C3.10008 18.0872 2.8999 17.6039 2.8999 17.1V1.9C2.8999 1.39609 3.10008 0.912816 3.4564 0.556497C3.81272 0.200178 4.29599 0 4.7999 0L11.6133 0Z" fill="#D7D7D7"/>
<rect y="8" width="16" height="8" rx="2" fill="#991CFF"/>
<path d="M5.12398 12.1818C5.12398 12.5784 5.04881 12.9157 4.89848 13.1939C4.74933 13.4721 4.54574 13.6845 4.28769 13.8313C4.03082 13.9769 3.742 14.0497 3.42121 14.0497C3.09806 14.0497 2.80805 13.9763 2.55118 13.8295C2.29432 13.6828 2.09131 13.4703 1.94216 13.1921C1.79301 12.9139 1.71844 12.5772 1.71844 12.1818C1.71844 11.7853 1.79301 11.4479 1.94216 11.1697C2.09131 10.8916 2.29432 10.6797 2.55118 10.5341C2.80805 10.3873 3.09806 10.3139 3.42121 10.3139C3.742 10.3139 4.03082 10.3873 4.28769 10.5341C4.54574 10.6797 4.74933 10.8916 4.89848 11.1697C5.04881 11.4479 5.12398 11.7853 5.12398 12.1818ZM4.3445 12.1818C4.3445 11.925 4.30603 11.7083 4.22909 11.532C4.15334 11.3556 4.04621 11.2218 3.90771 11.1307C3.76922 11.0395 3.60705 10.994 3.42121 10.994C3.23537 10.994 3.0732 11.0395 2.9347 11.1307C2.79621 11.2218 2.68849 11.3556 2.61155 11.532C2.53579 11.7083 2.49791 11.925 2.49791 12.1818C2.49791 12.4387 2.53579 12.6553 2.61155 12.8317C2.68849 13.008 2.79621 13.1418 2.9347 13.233C3.0732 13.3241 3.23537 13.3697 3.42121 13.3697C3.60705 13.3697 3.76922 13.3241 3.90771 13.233C4.04621 13.1418 4.15334 13.008 4.22909 12.8317C4.30603 12.6553 4.3445 12.4387 4.3445 12.1818ZM7.12993 11.2727V11.8409H5.48753V11.2727H7.12993ZM5.8604 10.6193H6.61679V13.1619C6.61679 13.2318 6.62744 13.2862 6.64875 13.3253C6.67006 13.3632 6.69965 13.3898 6.73753 13.4052C6.77659 13.4206 6.82157 13.4283 6.87247 13.4283C6.90798 13.4283 6.94349 13.4253 6.979 13.4194C7.01452 13.4123 7.04174 13.407 7.06068 13.4034L7.17964 13.9663C7.14176 13.9781 7.0885 13.9917 7.01984 14.0071C6.95119 14.0237 6.86773 14.0337 6.76949 14.0373C6.5872 14.0444 6.42739 14.0201 6.29008 13.9645C6.15396 13.9089 6.04801 13.8224 5.97226 13.7053C5.8965 13.5881 5.85921 13.4401 5.8604 13.2614V10.6193ZM8.43763 12.4233V14H7.68124V10.3636H8.41633V11.7539H8.44829C8.50984 11.5929 8.60927 11.4669 8.74658 11.3757C8.88389 11.2834 9.05612 11.2372 9.26327 11.2372C9.45267 11.2372 9.61779 11.2786 9.75866 11.3615C9.9007 11.4432 10.0108 11.561 10.0889 11.7148C10.1682 11.8675 10.2073 12.0504 10.2061 12.2635V14H9.44971V12.3984C9.45089 12.2304 9.40828 12.0996 9.32187 12.006C9.23664 11.9125 9.11708 11.8658 8.9632 11.8658C8.86022 11.8658 8.76907 11.8877 8.68976 11.9315C8.61164 11.9753 8.55009 12.0392 8.5051 12.1232C8.46131 12.2061 8.43882 12.3061 8.43763 12.4233ZM12.0443 14.0533C11.7637 14.0533 11.5222 13.9964 11.3198 13.8828C11.1186 13.768 10.9635 13.6058 10.8546 13.3963C10.7457 13.1856 10.6913 12.9364 10.6913 12.6488C10.6913 12.3683 10.7457 12.122 10.8546 11.9102C10.9635 11.6983 11.1168 11.5331 11.3145 11.4148C11.5134 11.2964 11.7466 11.2372 12.0141 11.2372C12.194 11.2372 12.3615 11.2662 12.5166 11.3242C12.6728 11.381 12.8089 11.4669 12.9249 11.5817C13.0421 11.6965 13.1333 11.8409 13.1984 12.0149C13.2635 12.1877 13.296 12.3902 13.296 12.6222V12.8299H10.9931V12.3612H12.584C12.584 12.2522 12.5604 12.1558 12.513 12.0717C12.4657 11.9877 12.4 11.922 12.3159 11.8746C12.2331 11.8261 12.1366 11.8018 12.0265 11.8018C11.9117 11.8018 11.8099 11.8285 11.7211 11.8817C11.6335 11.9338 11.5649 12.0043 11.5151 12.093C11.4654 12.1806 11.44 12.2783 11.4388 12.386V12.8317C11.4388 12.9666 11.4636 13.0832 11.5134 13.1815C11.5643 13.2797 11.6359 13.3555 11.7282 13.4087C11.8205 13.462 11.93 13.4886 12.0567 13.4886C12.1407 13.4886 12.2177 13.4768 12.2875 13.4531C12.3573 13.4295 12.4171 13.3939 12.4668 13.3466C12.5166 13.2992 12.5544 13.2412 12.5805 13.1726L13.2801 13.2188C13.2445 13.3868 13.1717 13.5336 13.0617 13.6591C12.9528 13.7834 12.8119 13.8804 12.6391 13.9503C12.4674 14.0189 12.2692 14.0533 12.0443 14.0533ZM13.7896 14V11.2727H14.5229V11.7486H14.5514C14.6011 11.5793 14.6845 11.4515 14.8017 11.3651C14.9189 11.2775 15.0538 11.2337 15.2065 11.2337C15.2444 11.2337 15.2853 11.236 15.3291 11.2408C15.3729 11.2455 15.4113 11.252 15.4445 11.2603V11.9315C15.409 11.9208 15.3598 11.9113 15.2971 11.9031C15.2344 11.8948 15.177 11.8906 15.1249 11.8906C15.0136 11.8906 14.9142 11.9149 14.8266 11.9634C14.7402 12.0108 14.6715 12.0771 14.6206 12.1623C14.5709 12.2475 14.546 12.3458 14.546 12.457V14H13.7896Z" fill="white"/>
</g>
<defs>
<clipPath id="clip0_459_21640">
<rect width="19" height="19" fill="white"/>
</clipPath>
</defs>
</svg>
