<svg width="19" height="19" viewBox="0 0 19 19" fill="none" xmlns="http://www.w3.org/2000/svg">
<g clip-path="url(#clip0_459_21635)">
<path d="M17.1499 6.65H13.3499C12.846 6.65 12.3627 6.44982 12.0064 6.0935C11.6501 5.73718 11.4499 5.25391 11.4499 4.75V0.95H4.7999C4.54795 0.95 4.30631 1.05009 4.12815 1.22825C3.94999 1.40641 3.8499 1.64804 3.8499 1.9V17.1C3.8499 17.352 3.94999 17.5936 4.12815 17.7718C4.30631 17.9499 4.54795 18.05 4.7999 18.05H16.1999C16.4519 18.05 16.6935 17.9499 16.8717 17.7718C17.0498 17.5936 17.1499 17.352 17.1499 17.1V6.65ZM16.7566 5.7L12.3999 1.3433V4.75C12.3999 5.00196 12.5 5.24359 12.6781 5.42175C12.8563 5.59991 13.0979 5.7 13.3499 5.7H16.7566ZM11.6133 0C12.1172 0.000107611 12.6004 0.200356 12.9566 0.5567L17.5432 5.1433C17.8995 5.49954 18.0998 5.98273 18.0999 6.4866V17.1C18.0999 17.6039 17.8997 18.0872 17.5434 18.4435C17.1871 18.7998 16.7038 19 16.1999 19H4.7999C4.29599 19 3.81272 18.7998 3.4564 18.4435C3.10008 18.0872 2.8999 17.6039 2.8999 17.1V1.9C2.8999 1.39609 3.10008 0.912816 3.4564 0.556497C3.81272 0.200178 4.29599 0 4.7999 0L11.6133 0Z" fill="#D7D7D7"/>
<rect y="8" width="14" height="8" rx="2" fill="#FF1C1C"/>
<path d="M2.41615 14V10.3636H3.85081C4.12661 10.3636 4.36158 10.4163 4.55571 10.5217C4.74984 10.6258 4.8978 10.7708 4.9996 10.9567C5.10258 11.1413 5.15408 11.3544 5.15408 11.5959C5.15408 11.8374 5.10199 12.0504 4.99783 12.2351C4.89366 12.4197 4.74274 12.5636 4.54506 12.6665C4.34856 12.7695 4.11063 12.821 3.83128 12.821H2.91686V12.2049H3.70699C3.85495 12.2049 3.97687 12.1795 4.07275 12.1286C4.16982 12.0765 4.24202 12.0049 4.28937 11.9137C4.33791 11.8214 4.36217 11.7154 4.36217 11.5959C4.36217 11.4751 4.33791 11.3698 4.28937 11.2798C4.24202 11.1887 4.16982 11.1183 4.07275 11.0685C3.97569 11.0176 3.85258 10.9922 3.70344 10.9922H3.18497V14H2.41615ZM6.94252 14H5.65345V10.3636H6.95317C7.31894 10.3636 7.6338 10.4364 7.89777 10.582C8.16174 10.7264 8.36475 10.9342 8.50679 11.2053C8.65002 11.4763 8.72164 11.8007 8.72164 12.1783C8.72164 12.5571 8.65002 12.8826 8.50679 13.1548C8.36475 13.4271 8.16056 13.636 7.89422 13.7816C7.62907 13.9272 7.31183 14 6.94252 14ZM6.42227 13.3413H6.91056C7.13783 13.3413 7.329 13.301 7.48406 13.2205C7.64031 13.1388 7.7575 13.0128 7.83563 12.8423C7.91494 12.6707 7.95459 12.4493 7.95459 12.1783C7.95459 11.9096 7.91494 11.69 7.83563 11.5195C7.7575 11.3491 7.64091 11.2236 7.48584 11.1431C7.33077 11.0626 7.1396 11.0224 6.91233 11.0224H6.42227V13.3413ZM9.29115 14V10.3636H11.6988V10.9975H10.06V11.864H11.539V12.4979H10.06V14H9.29115Z" fill="white"/>
</g>
<defs>
<clipPath id="clip0_459_21635">
<rect width="19" height="19" fill="white"/>
</clipPath>
</defs>
</svg>
