<svg width="22" height="22" viewBox="0 0 22 22" fill="none" xmlns="http://www.w3.org/2000/svg">
<g opacity="0.9">
<path d="M17.3379 3L17.4668 3.01367C17.5942 3.0393 17.7133 3.10108 17.8066 3.19434C17.9306 3.31842 17.9998 3.48832 18 3.66406V18.8281L17.9863 18.957C17.961 19.0846 17.8998 19.2037 17.8066 19.2969C17.7133 19.3901 17.5942 19.4529 17.4668 19.4785L17.3379 19.4912H6.35547C5.73103 19.4903 5.1319 19.2414 4.69043 18.7998C4.30417 18.4134 4.06667 17.9063 4.0127 17.3672L4 17.1348V5.4082C4.00087 4.77002 4.25475 4.15631 4.70605 3.70508C5.1573 3.2541 5.77022 3.00079 6.4082 3H17.3379ZM6.35547 16.1064C6.0826 16.1066 5.8209 16.2152 5.62793 16.4082C5.43499 16.6014 5.32715 16.8631 5.32715 17.1357C5.32727 17.4083 5.43476 17.6701 5.62793 17.8633C5.82111 18.0565 6.0829 18.1639 6.35547 18.1641H16.6738V16.1064H6.35547ZM6.40625 4.32617C6.11976 4.32659 5.84527 4.44088 5.64258 4.64355C5.43988 4.84633 5.32549 5.12158 5.3252 5.4082V15.0098L5.46875 14.9521C5.74981 14.8381 6.05099 14.7797 6.35449 14.7803H16.6729V4.32617H14.4355V4.42969L14.4248 9.2041L13.0576 8.4248L13.0049 8.39551L12.9531 8.42578L11.585 9.22559V4.32617H6.40625Z" fill="#474946"/>
</g>
</svg>
