<svg width="22" height="22" viewBox="0 0 22 22" fill="none" xmlns="http://www.w3.org/2000/svg">
<path d="M4.03125 10.2457C4.27493 11.92 5.11327 13.4506 6.3929 14.5575C7.67253 15.6644 9.30791 16.2735 10.9998 16.2735M10.9998 16.2735C12.6918 16.2735 14.3272 15.6644 15.6068 14.5575C16.8864 13.4506 17.7248 11.92 17.9684 10.2457M10.9998 16.2735V19.8M11.0008 2.20001C10.2007 2.20001 9.43323 2.51789 8.86741 3.08371C8.30158 3.64954 7.98371 4.41696 7.98371 5.21715V9.24001C7.98371 10.0402 8.30158 10.8076 8.86741 11.3735C9.43323 11.9393 10.2007 12.2572 11.0008 12.2572C11.801 12.2572 12.5685 11.9393 13.1343 11.3735C13.7001 10.8076 14.018 10.0402 14.018 9.24001V5.21715C14.018 4.41696 13.7001 3.64954 13.1343 3.08371C12.5685 2.51789 11.801 2.20001 11.0008 2.20001Z" stroke="black" stroke-width="2" stroke-linecap="round" stroke-linejoin="round"/>
</svg>
