<svg width="16" height="16" viewBox="0 0 16 16" fill="none" xmlns="http://www.w3.org/2000/svg">
<path d="M3.33337 12H6.16004C6.24778 12.0005 6.33475 11.9837 6.41598 11.9505C6.4972 11.9173 6.57108 11.8685 6.63337 11.8067L11.2467 7.18667L13.14 5.33333C13.2025 5.27136 13.2521 5.19762 13.286 5.11638C13.3198 5.03515 13.3372 4.94801 13.3372 4.86C13.3372 4.77199 13.3198 4.68485 13.286 4.60362C13.2521 4.52238 13.2025 4.44864 13.14 4.38667L10.3134 1.52667C10.2514 1.46418 10.1777 1.41458 10.0964 1.38074C10.0152 1.34689 9.92805 1.32947 9.84004 1.32947C9.75203 1.32947 9.6649 1.34689 9.58366 1.38074C9.50242 1.41458 9.42868 1.46418 9.36671 1.52667L7.48671 3.41333L2.86004 8.03333C2.79825 8.09563 2.74937 8.1695 2.71619 8.25073C2.68302 8.33195 2.6662 8.41893 2.66671 8.50667V11.3333C2.66671 11.5101 2.73695 11.6797 2.86197 11.8047C2.98699 11.9298 3.15656 12 3.33337 12ZM9.84004 2.94L11.7267 4.82667L10.78 5.77333L8.89337 3.88667L9.84004 2.94ZM4.00004 8.78L7.95337 4.82667L9.84004 6.71333L5.88671 10.6667H4.00004V8.78ZM14 13.3333H2.00004C1.82323 13.3333 1.65366 13.4036 1.52864 13.5286C1.40361 13.6536 1.33337 13.8232 1.33337 14C1.33337 14.1768 1.40361 14.3464 1.52864 14.4714C1.65366 14.5964 1.82323 14.6667 2.00004 14.6667H14C14.1769 14.6667 14.3464 14.5964 14.4714 14.4714C14.5965 14.3464 14.6667 14.1768 14.6667 14C14.6667 13.8232 14.5965 13.6536 14.4714 13.5286C14.3464 13.4036 14.1769 13.3333 14 13.3333Z" fill="#343434"/>
</svg>
