<svg width="16" height="16" viewBox="0 0 16 16" fill="none" xmlns="http://www.w3.org/2000/svg">
<path d="M14 9.33337C13.8232 9.33337 13.6537 9.40361 13.5286 9.52864C13.4036 9.65366 13.3334 9.82323 13.3334 10V12.6667C13.3334 12.8435 13.2631 13.0131 13.1381 13.1381C13.0131 13.2631 12.8435 13.3334 12.6667 13.3334H3.33337C3.15656 13.3334 2.98699 13.2631 2.86197 13.1381C2.73695 13.0131 2.66671 12.8435 2.66671 12.6667V10C2.66671 9.82323 2.59647 9.65366 2.47145 9.52864C2.34642 9.40361 2.17685 9.33337 2.00004 9.33337C1.82323 9.33337 1.65366 9.40361 1.52864 9.52864C1.40361 9.65366 1.33337 9.82323 1.33337 10V12.6667C1.33337 13.1971 1.54409 13.7058 1.91916 14.0809C2.29423 14.456 2.80294 14.6667 3.33337 14.6667H12.6667C13.1971 14.6667 13.7058 14.456 14.0809 14.0809C14.456 13.7058 14.6667 13.1971 14.6667 12.6667V10C14.6667 9.82323 14.5965 9.65366 14.4714 9.52864C14.3464 9.40361 14.1769 9.33337 14 9.33337Z" fill="#343434"/>
<path d="M10.1947 6.86267L8.66801 8.39601V2.00267C8.66801 1.82586 8.59777 1.65629 8.47275 1.53127C8.34772 1.40625 8.17815 1.33601 8.00134 1.33601C7.82453 1.33601 7.65496 1.40625 7.52994 1.53127C7.40491 1.65629 7.33467 1.82586 7.33467 2.00267V8.39601L5.80801 6.86267C5.74603 6.80019 5.6723 6.75059 5.59106 6.71675C5.50982 6.6829 5.42268 6.66547 5.33467 6.66547C5.24667 6.66547 5.15953 6.6829 5.07829 6.71675C4.99705 6.75059 4.92332 6.80019 4.86134 6.86267C4.79886 6.92465 4.74926 6.99838 4.71541 7.07962C4.68157 7.16086 4.66414 7.248 4.66414 7.33601C4.66414 7.42401 4.68157 7.51115 4.71541 7.59239C4.74926 7.67363 4.79886 7.74736 4.86134 7.80934L7.52801 10.476C7.59141 10.5367 7.66617 10.5843 7.74801 10.616C7.91032 10.6827 8.09237 10.6827 8.25467 10.616C8.33651 10.5843 8.41127 10.5367 8.47467 10.476L11.1413 7.80934C11.2035 7.74718 11.2528 7.67339 11.2864 7.59217C11.3201 7.51096 11.3374 7.42391 11.3374 7.33601C11.3374 7.2481 11.3201 7.16105 11.2864 7.07984C11.2528 6.99863 11.2035 6.92483 11.1413 6.86267C11.0792 6.80051 11.0054 6.75121 10.9242 6.71757C10.843 6.68393 10.7559 6.66661 10.668 6.66661C10.5801 6.66661 10.4931 6.68393 10.4118 6.71757C10.3306 6.75121 10.2568 6.80051 10.1947 6.86267Z" fill="#343434"/>
</svg>
