<svg width="16" height="16" viewBox="0 0 16 16" fill="none" xmlns="http://www.w3.org/2000/svg">
<path d="M13.2666 8.43997C13.1598 8.31831 13.1008 8.16191 13.1008 7.99997C13.1008 7.83803 13.1598 7.68163 13.2666 7.55997L14.12 6.59997C14.214 6.49508 14.2724 6.36311 14.2868 6.22298C14.3011 6.08284 14.2708 5.94176 14.2 5.81997L12.8666 3.5133C12.7966 3.39165 12.6899 3.29522 12.5618 3.23776C12.4337 3.1803 12.2908 3.16474 12.1533 3.1933L10.9 3.44664C10.7405 3.47959 10.5745 3.45303 10.4332 3.37197C10.292 3.29091 10.1853 3.16096 10.1333 3.00664L9.72664 1.78664C9.68191 1.65422 9.59671 1.53921 9.48306 1.45787C9.36941 1.37652 9.23307 1.33294 9.09331 1.3333H6.42664C6.28126 1.32572 6.13739 1.36592 6.01701 1.44778C5.89664 1.52964 5.80636 1.64865 5.75997 1.78664L5.38664 3.00664C5.33464 3.16096 5.22795 3.29091 5.08671 3.37197C4.94547 3.45303 4.77945 3.47959 4.61997 3.44664L3.3333 3.1933C3.20301 3.17489 3.07017 3.19545 2.95154 3.2524C2.8329 3.30934 2.73377 3.40012 2.66664 3.5133L1.3333 5.81997C1.26074 5.9404 1.22812 6.08069 1.24009 6.22079C1.25207 6.36088 1.30803 6.4936 1.39997 6.59997L2.24664 7.55997C2.35352 7.68163 2.41246 7.83803 2.41246 7.99997C2.41246 8.16191 2.35352 8.31831 2.24664 8.43997L1.39997 9.39997C1.30803 9.50634 1.25207 9.63906 1.24009 9.77915C1.22812 9.91925 1.26074 10.0595 1.3333 10.18L2.66664 12.4866C2.7367 12.6083 2.84338 12.7047 2.97147 12.7622C3.09956 12.8196 3.24252 12.8352 3.37997 12.8066L4.6333 12.5533C4.79278 12.5204 4.95881 12.5469 5.10005 12.628C5.24129 12.709 5.34797 12.839 5.39997 12.9933L5.80664 14.2133C5.85302 14.3513 5.9433 14.4703 6.06368 14.5522C6.18406 14.634 6.32793 14.6742 6.4733 14.6666H9.13997C9.27973 14.667 9.41608 14.6234 9.52972 14.5421C9.64337 14.4607 9.72858 14.3457 9.7733 14.2133L10.18 12.9933C10.232 12.839 10.3387 12.709 10.4799 12.628C10.6211 12.5469 10.7872 12.5204 10.9466 12.5533L12.2 12.8066C12.3374 12.8352 12.4804 12.8196 12.6085 12.7622C12.7366 12.7047 12.8432 12.6083 12.9133 12.4866L14.2466 10.18C14.3174 10.0582 14.3478 9.9171 14.3334 9.77697C14.3191 9.63684 14.2607 9.50486 14.1666 9.39997L13.2666 8.43997ZM12.2733 9.3333L12.8066 9.9333L11.9533 11.4133L11.1666 11.2533C10.6865 11.1552 10.187 11.2367 9.76303 11.4825C9.33905 11.7283 9.02007 12.1212 8.86664 12.5866L8.61331 13.3333H6.90664L6.66664 12.5733C6.51321 12.1079 6.19423 11.715 5.77024 11.4692C5.34626 11.2234 4.84679 11.1418 4.36664 11.24L3.57997 11.4L2.7133 9.92664L3.24664 9.32664C3.57461 8.95996 3.75593 8.48526 3.75593 7.9933C3.75593 7.50135 3.57461 7.02665 3.24664 6.65997L2.7133 6.05997L3.56664 4.5933L4.3533 4.7533C4.83345 4.85145 5.33292 4.76989 5.75691 4.5241C6.18089 4.27832 6.49987 3.88541 6.6533 3.41997L6.90664 2.66664H8.61331L8.86664 3.42664C9.02007 3.89208 9.33905 4.28498 9.76303 4.53077C10.187 4.77656 10.6865 4.85812 11.1666 4.75997L11.9533 4.59997L12.8066 6.07997L12.2733 6.67997C11.949 7.04581 11.77 7.51776 11.77 8.00664C11.77 8.49552 11.949 8.96746 12.2733 9.3333ZM7.75997 5.3333C7.23255 5.3333 6.71698 5.4897 6.27845 5.78272C5.83992 6.07574 5.49813 6.49221 5.29629 6.97948C5.09446 7.46675 5.04165 8.00293 5.14454 8.52021C5.24744 9.03749 5.50141 9.51265 5.87435 9.88559C6.24729 10.2585 6.72245 10.5125 7.23973 10.6154C7.75701 10.7183 8.29319 10.6655 8.78046 10.4636C9.26773 10.2618 9.68421 9.92002 9.97722 9.48149C10.2702 9.04296 10.4266 8.52739 10.4266 7.99997C10.4266 7.29273 10.1457 6.61445 9.64559 6.11435C9.14549 5.61426 8.46722 5.3333 7.75997 5.3333ZM7.75997 9.3333C7.49626 9.3333 7.23848 9.25511 7.01921 9.1086C6.79995 8.96209 6.62905 8.75385 6.52813 8.51021C6.42722 8.26658 6.40081 7.99849 6.45226 7.73985C6.50371 7.48121 6.63069 7.24363 6.81716 7.05716C7.00363 6.87069 7.24121 6.7437 7.49985 6.69226C7.75849 6.64081 8.02658 6.66721 8.27022 6.76813C8.51385 6.86905 8.72209 7.03994 8.8686 7.25921C9.01511 7.47848 9.09331 7.73626 9.09331 7.99997C9.09331 8.35359 8.95283 8.69273 8.70278 8.94278C8.45273 9.19283 8.11359 9.3333 7.75997 9.3333Z" fill="#343434"/>
</svg>
